<svg width="100%" style="border-radius: 23%" viewBox="0 0 512 512" fill="none" xmlns="http://www.w3.org/2000/svg" > <g clip-path="url(#clip0_803_4)"> <rect width="512" height="512" fill="white" /> <rect width="512" height="512" fill="url(#paint0_linear_803_4)" /> <rect x="285.89" y="502" width="9" height="10" fill="white" /> <rect x="201.08" y="502" width="9" height="10" fill="white" /> <path d="M153.937 311.012H201.082V505.064C201.082 508.896 204.187 512 208.019 512H287.954C291.786 512 294.891 508.896 294.891 505.064V311.926H349.088C352.612 311.926 355.577 309.282 355.979 305.783L364.21 234.342C364.437 232.377 363.814 230.408 362.498 228.934C361.182 227.458 359.298 226.613 357.321 226.613H294.894V181.831C294.894 168.331 302.164 161.485 316.504 161.485C318.547 161.485 357.321 161.485 357.321 161.485C361.153 161.485 364.258 158.38 364.258 154.55V88.9742C364.258 85.1429 361.153 82.0385 357.321 82.0385H301.069C300.672 82.0191 299.791 81.9872 298.493 81.9872C288.732 81.9872 254.807 83.9028 228.008 108.552C198.315 135.868 202.443 168.574 203.429 174.244V226.612H153.937C150.105 226.612 147 229.716 147 233.547V304.075C147 307.906 150.105 311.012 153.937 311.012Z" fill="white" /> </g> <defs> <linearGradient id="paint0_linear_803_4" x1="256" y1="0" x2="256" y2="512" gradientUnits="userSpaceOnUse" > <stop stop-color="#17A9FD" /> <stop offset="1" stop-color="#0165E1" /> </linearGradient> <clipPath id="clip0_803_4"> <rect width="512" height="512" fill="white" /> </clipPath> </defs> </svg>