<svg width="100%" style="border-radius: 23%" viewBox="0 0 512 512" fill="none" xmlns="http://www.w3.org/2000/svg" > <rect width="512" height="512" fill="white" /> <g clip-path="url(#clip0_53_47)"> <path d="M70.3236 417.56H138.745V251.393L41 178.084V388.236C41 404.462 54.1468 417.56 70.3236 417.56Z" fill="#4285F4" /> <path d="M373.334 417.56H441.756C457.982 417.56 471.08 404.413 471.08 388.236V178.084L373.334 251.393" fill="#34A853" /> <path d="M373.334 124.324V251.393L471.08 178.084V138.985C471.08 102.722 429.685 82.0487 400.703 103.797" fill="#FBBC04" /> <path d="M138.745 251.393V124.324L256.04 212.295L373.334 124.324V251.393L256.04 339.364" fill="#EA4335" /> <path d="M41 138.985V178.084L138.745 251.393V124.324L111.377 103.797C82.3463 82.0487 41 102.722 41 138.985Z" fill="#C5221F" /> </g> <defs> <clipPath id="clip0_53_47"> <rect width="430.08" height="322.56" fill="white" transform="translate(41 95)" /> </clipPath> </defs> </svg>