<svg width="100%" style="border-radius: 23%;" viewBox="0 0 512 512" fill="none" xmlns="http://www.w3.org/2000/svg" > <rect width="512" height="512" fill="white" /> <g clip-path="url(#clip0_806_6)"> <path d="M406.274 164.545C401.537 129.337 370.852 101.591 334.476 96.2148C328.339 95.3063 305.087 92 251.223 92H250.821C196.942 92 185.383 95.3063 179.246 96.2148C143.883 101.442 111.589 126.374 103.754 161.998C99.9851 179.543 99.5829 198.993 100.283 216.836C101.281 242.422 101.475 267.964 103.798 293.446C105.405 310.373 108.207 327.165 112.185 343.696C119.633 374.228 149.782 399.636 179.321 410.001C210.946 420.812 244.957 422.606 277.544 415.185C281.129 414.35 284.669 413.382 288.165 412.28C296.09 409.763 305.37 406.948 312.192 402.004C312.286 401.934 312.362 401.845 312.416 401.742C312.471 401.639 312.501 401.524 312.505 401.408V376.715C312.503 376.606 312.477 376.499 312.429 376.402C312.38 376.304 312.311 376.219 312.225 376.152C312.139 376.084 312.04 376.038 311.933 376.014C311.827 375.99 311.717 375.991 311.611 376.015C290.733 381.001 269.338 383.501 247.872 383.462C210.93 383.462 200.994 365.932 198.149 358.634C195.862 352.327 194.41 345.748 193.829 339.065C193.823 338.953 193.844 338.841 193.889 338.738C193.935 338.635 194.004 338.544 194.091 338.473C194.178 338.402 194.281 338.353 194.391 338.329C194.5 338.305 194.614 338.307 194.723 338.335C215.254 343.287 236.3 345.787 257.42 345.782C262.499 345.782 267.564 345.782 272.643 345.648C293.885 345.052 316.273 343.965 337.172 339.884C337.694 339.78 338.215 339.69 338.662 339.556C371.626 333.226 402.997 313.359 406.185 263.049C406.304 261.069 406.602 242.303 406.602 240.248C406.617 233.263 408.851 190.698 406.274 164.545Z" fill="url(#paint0_linear_806_6)" /> <path d="M354.049 204.101V291.57H319.386V206.678C319.386 188.806 311.938 179.691 296.789 179.691C280.136 179.691 271.794 190.474 271.794 211.771V258.238H237.34V211.771C237.34 190.474 228.984 179.691 212.33 179.691C197.27 179.691 189.747 188.806 189.747 206.678V291.57H155.1V204.101C155.1 186.229 159.663 172.031 168.789 161.506C178.203 151.006 190.552 145.615 205.88 145.615C223.621 145.615 237.027 152.436 245.965 166.064L254.589 180.54L263.229 166.064C272.166 152.436 285.573 145.615 303.284 145.615C318.597 145.615 330.946 151.006 340.39 161.506C349.506 172.021 354.059 186.219 354.049 204.101Z" fill="white" /> </g> <defs> <linearGradient id="paint0_linear_806_6" x1="253.757" y1="92" x2="253.757" y2="419.68" gradientUnits="userSpaceOnUse" > <stop stop-color="#6364FF" /> <stop offset="1" stop-color="#563ACC" /> </linearGradient> <clipPath id="clip0_806_6"> <rect width="311.089" height="327.68" fill="white" transform="translate(100 92)" /> </clipPath> </defs> </svg>