<svg width="100%" style="border-radius: 23%" viewBox="0 0 512 512" fill="none" xmlns="http://www.w3.org/2000/svg" > <rect width="512" height="512" fill="#FFFC00" /> <path fill-rule="evenodd" clip-rule="evenodd" d="M135.962 363.154C111.154 359.164 96.4566 353.313 92.8298 344.685C92.361 343.563 92.0853 342.37 92.0142 341.157C91.7691 336.919 94.7286 333.152 98.9068 332.455C117.813 329.282 133.654 318.73 146.576 303.244C154.569 293.665 159.885 284.266 162.586 277.818L162.778 277.387C164.992 272.831 165.386 269.238 164.269 266.543C163.019 263.527 159.595 260.977 154.074 258.722C152.109 257.92 150.566 257.388 147.02 256.239C146.141 255.947 146.141 255.947 145.156 255.624C144.503 255.411 143.853 255.186 143.208 254.952C142.714 254.768 142.714 254.768 142.242 254.581C130.219 249.739 123.61 243.129 125.078 235.201C126.415 227.982 134.566 222.931 142.267 222.932C144.275 222.891 146.266 223.296 148.32 224.225C152.743 226.515 157.615 227.806 162.591 228.008C164.191 228.057 165.779 227.76 167.181 227.179C167.14 226.442 167.122 226.135 167.051 224.935L166.92 222.783L166.757 220.112L166.604 217.603C166.092 209.233 165.817 203.881 165.649 198.254C165.038 177.715 166.413 163.031 170.972 152.624C188.124 113.465 220.238 99 252.57 99H258.948C291.486 99 323.566 113.403 340.734 152.607C346.844 166.534 347.227 183.386 344.936 220.133L344.684 224.365V224.369L344.516 227.184C345.731 227.687 347.014 227.962 348.25 227.991L348.165 228.005C352.842 227.623 357.402 226.319 361.821 224.053C363.986 223.092 366.332 222.618 368.6 222.665C370.846 222.662 373.077 223.042 375.262 223.814L375.582 223.932L375.882 224.043C382.297 226.385 386.633 231.215 386.746 237.01C386.876 244.258 380.544 250.059 369.444 254.518C368.241 255.005 366.907 255.451 363.419 256.322L364.598 256.106C361.213 257.203 359.572 257.771 357.596 258.582C352.079 260.846 348.642 263.405 347.392 266.401C346.282 269.07 346.681 272.693 348.877 277.238L349.105 277.719C351.766 284.088 357.111 293.536 365.11 303.116C378.03 318.59 393.868 329.132 412.752 332.304C416.951 332.99 419.923 336.773 419.664 341.01C419.594 342.234 419.311 343.437 418.828 344.565C415.203 353.153 400.503 358.986 375.718 362.974C375.282 363.987 374.723 366.035 373.936 369.679C373.21 373.106 372.72 375.159 372.143 377.036C371.245 381.468 367.21 384.553 363.071 384.203L362.542 384.2C360.003 384.114 357.477 383.795 354.997 383.247C349.434 382.061 343.765 381.449 338.077 381.422C334.01 381.433 329.95 381.783 325.921 382.471C320.817 383.322 315.91 385.693 309.324 390.172C307.688 391.283 306.447 392.165 303.355 394.389C285.261 407.721 274.909 412.637 257.874 412.637H253.834C236.866 412.637 226.889 407.933 208.364 394.596C205.254 392.359 203.934 391.423 202.269 390.294C195.748 385.872 190.852 383.512 185.755 382.646C181.76 381.963 177.714 381.613 173.661 381.599C167.983 381.659 162.326 382.308 156.782 383.535C154.298 384.125 151.769 384.494 149.469 384.619C144.81 385.144 140.537 382.024 139.62 377.723C138.987 375.525 138.736 374.464 137.744 370.028C136.913 366.151 136.362 364.095 135.962 363.154V363.154Z" stroke="black" stroke-width="13.875" /> <path fill-rule="evenodd" clip-rule="evenodd" d="M257.874 408.199H253.834C234.858 408.199 222.71 399.456 210.956 390.994C202.935 385.223 195.38 379.779 186.502 378.27C182.244 377.544 177.933 377.173 173.613 377.161C167.608 377.225 161.625 377.914 155.756 379.217C153.528 379.746 151.257 380.078 148.971 380.209C146.592 380.477 144.399 378.875 143.885 376.495C143.144 373.921 142.607 371.435 142.083 369.098C141.037 364.216 140.325 361.479 139.294 360.059L138.582 359.082L137.405 358.89C113.721 355.147 99.7288 349.643 96.9241 342.972C96.6487 342.313 96.4865 341.613 96.4443 340.9C96.3292 338.91 97.7097 337.154 99.6411 336.832C145.382 329.154 165.811 281.605 166.654 279.594L166.77 279.327C169.502 273.705 170.025 268.837 168.368 264.843C165.302 257.446 155.146 254.206 148.434 252.032C146.98 251.543 145.207 250.995 143.9 250.463C133.612 246.321 128.484 241.187 129.443 236.009C130.402 230.831 137.013 227.369 142.359 227.369C143.71 227.342 145.05 227.615 146.283 228.169C151.295 230.761 156.816 232.221 162.455 232.444C165.137 232.525 167.794 231.914 170.17 230.669L171.768 229.767L171.667 227.902C171.521 225.224 171.347 222.488 171.187 219.84C169.822 197.648 168.121 170.19 175.038 154.405C195.728 107.167 239.623 103.439 252.569 103.439H258.948C272.025 103.439 315.964 107.108 336.669 154.389C343.601 170.19 341.886 197.737 340.505 219.869C340.505 219.869 340.128 226.215 340.026 227.917L339.925 229.781L341.537 230.683C343.609 231.777 345.907 232.375 348.25 232.429H348.526C353.794 231.997 358.924 230.529 363.623 228.109C365.19 227.412 366.892 227.069 368.606 227.103C370.349 227.101 372.078 227.396 373.721 227.976L374.041 228.094L374.361 228.213C379.185 229.973 382.236 233.347 382.309 237.089C382.396 241.942 377.354 246.557 367.779 250.404C366.572 250.892 365.047 251.381 363.419 251.883H363.231C356.518 254.059 346.361 257.342 343.295 264.695C341.638 268.675 342.176 273.572 344.893 279.194L345.01 279.43C345.882 281.516 366.311 329.006 412.036 336.684C413.972 337 415.355 338.761 415.233 340.753C415.192 341.472 415.024 342.177 414.739 342.838C411.935 349.481 397.928 354.969 374.259 358.713L373.081 358.904L372.37 359.881C371.338 361.36 370.597 364.113 369.595 368.758C369.043 371.362 368.519 373.714 367.793 376.155C367.338 378.398 365.314 379.946 363.071 379.765H362.693C360.415 379.687 358.148 379.4 355.922 378.907C350.051 377.656 344.067 377.011 338.064 376.983C333.751 376.996 329.445 377.367 325.191 378.093C316.313 379.572 308.743 385.046 300.722 390.816C288.997 399.456 276.835 408.199 257.874 408.199Z" fill="white" /> <path fill-rule="evenodd" clip-rule="evenodd" d="M412.545 333.844C368.418 326.446 348.613 280.318 347.727 278.365L347.582 278.04C345.227 273.172 344.675 269.163 346.027 265.938C348.569 259.843 357.956 256.795 364.175 254.783C365.904 254.221 367.546 253.703 368.883 253.156C379.882 248.718 385.403 243.303 385.287 237.015C385.2 232.074 381.408 227.651 375.406 225.476C373.257 224.6 370.957 224.153 368.636 224.159C366.494 224.132 364.372 224.571 362.417 225.446C358.063 227.698 353.308 229.07 348.424 229.485C346.526 229.454 344.661 228.983 342.976 228.11C343.107 225.831 343.252 223.493 343.397 221.038V220.091C344.85 197.633 346.521 169.687 339.314 153.221C317.911 104.282 272.432 100.48 258.992 100.48H252.569C239.188 100.48 193.796 104.341 172.379 153.221C165.114 169.672 166.901 197.604 168.281 220.046C168.441 222.68 168.615 225.417 168.761 228.08C166.81 229.083 164.633 229.567 162.44 229.485C157.224 229.234 152.126 227.845 147.503 225.416C145.889 224.684 144.132 224.32 142.36 224.352C135.734 224.352 127.83 228.79 126.58 235.403C125.694 240.166 127.786 247.105 142.825 253.156C144.176 253.703 145.804 254.221 147.532 254.783C153.736 256.795 163.138 259.828 165.681 265.938C167.002 269.104 166.465 273.187 164.111 278.04L163.966 278.365C163.138 280.333 143.261 326.446 99.1473 333.844C95.7553 334.419 93.3358 337.508 93.5386 341.004C93.5992 342.062 93.84 343.103 94.2506 344.081C97.5639 351.966 111.527 357.736 136.969 361.76C137.827 362.929 138.698 367.072 139.25 369.586C139.802 372.101 140.325 374.631 141.11 377.338C141.97 380.991 145.307 383.467 148.986 383.182C151.434 383.053 153.866 382.701 156.251 382.132C161.957 380.85 167.78 380.166 173.628 380.09C177.787 380.101 181.936 380.457 186.037 381.155C194.247 382.546 201.221 387.561 209.285 393.375C220.909 401.705 233.986 411.128 253.848 411.128H257.874C277.779 411.128 290.871 401.705 302.422 393.375C310.515 387.546 317.49 382.532 325.671 381.156C329.77 380.457 333.921 380.101 338.079 380.09C343.894 380.121 349.693 380.751 355.384 381.969C357.772 382.497 360.204 382.804 362.649 382.886H363.027C366.568 383.101 369.744 380.681 370.539 377.16C371.294 374.543 371.847 372.027 372.399 369.497C372.951 366.968 373.852 362.87 374.665 361.701C400.078 357.677 414.056 351.922 417.369 344.081C417.788 343.1 418.034 342.054 418.095 340.989C418.295 337.518 415.908 334.446 412.545 333.843V333.844ZM411.253 341.373C410.438 343.297 405.324 349.969 373.474 354.969C368.491 355.754 367.27 361.435 365.861 368.048C365.352 370.415 364.829 372.797 364.117 375.267C363.899 376.007 363.87 376.051 363.071 376.051H362.693C360.659 375.962 358.636 375.695 356.648 375.253C350.538 373.953 344.311 373.283 338.064 373.255C333.536 373.265 329.016 373.651 324.551 374.409C314.816 376.066 306.897 381.806 298.499 387.798C287.239 395.905 275.586 404.278 257.815 404.278H253.791C236.034 404.278 224.381 395.905 213.106 387.798C204.723 381.762 196.789 376.051 187.054 374.409C182.589 373.651 178.07 373.265 173.541 373.255C167.286 373.319 161.055 374.033 154.942 375.386C152.956 375.858 150.935 376.164 148.898 376.302C147.75 376.302 147.721 376.302 147.445 375.386C146.733 372.915 146.21 370.474 145.702 368.107C144.248 361.494 143.057 355.783 138.088 354.999C106.267 349.999 101.152 343.311 100.31 341.389C100.203 341.14 100.139 340.875 100.121 340.604C147.59 332.645 168.688 284.253 170.025 281.058C173.279 274.326 173.861 268.335 171.74 263.305C167.976 254.295 156.817 250.685 149.421 248.289C147.736 247.741 146.268 247.268 145.15 246.809C135.676 242.919 132.77 239.028 133.22 236.675C133.729 233.968 138.349 231.201 142.389 231.201C143.176 231.175 143.96 231.322 144.685 231.63C150.195 234.487 156.267 236.094 162.47 236.335C170.722 236.335 174.398 232.429 174.791 231.985L175.691 230.964L175.619 229.604C175.444 226.423 175.242 223.079 175.023 219.632C173.686 197.914 172.001 170.915 178.54 156.017C198.3 110.835 240.205 107.388 252.584 107.388H258.992C271.226 107.388 313.335 110.732 333.182 156.032C339.72 170.944 338.05 197.974 336.699 219.647C336.484 222.97 336.29 226.293 336.117 229.618V230.994L337.018 232.015C337.382 232.429 340.782 236.039 348.337 236.335H348.584C354.398 235.897 360.065 234.297 365.25 231.63C366.31 231.179 367.455 230.962 368.606 230.994C370.059 230.984 371.5 231.26 372.849 231.808L373.038 231.882C376.235 233.02 378.501 235.181 378.545 237.134C378.545 238.243 377.746 242.208 366.398 246.78C365.294 247.223 363.826 247.697 362.14 248.259C354.745 250.641 343.586 254.25 339.823 263.275C337.701 268.365 338.282 274.356 341.537 281.028C342.874 284.209 363.971 332.601 411.456 340.575C411.439 340.857 411.37 341.133 411.252 341.388V341.373H411.253Z" fill="#030303" /> </svg>
