<svg width="512" height="139" viewBox="0 0 512 139" fill="none" xmlns="http://www.w3.org/2000/svg"><path d="M170.112 16.6117H163.894L153.942 9.30383V16.6117H150.045V0H153.942V6.92153L163.154 0H168.758L157.743 7.82294L170.112 16.6117ZM193.589 6.92153C193.589 9.06775 192.343 10.1409 189.852 10.1409H179.416V16.6117H175.616V0H189.852C192.343 0 193.589 1.07311 193.589 3.21932V6.92153ZM189.852 5.95575V4.18511C189.852 3.62712 189.691 3.26225 189.368 3.09056C189.133 2.94032 188.715 2.86521 188.114 2.86521H179.416V7.27565H188.114C188.715 7.27565 189.133 7.20054 189.368 7.0503C189.691 6.87861 189.852 6.51374 189.852 5.95575ZM216.977 0L207.831 16.6117H205.157L195.558 0H199.971L206.702 12.008L213.113 0H216.977ZM238.642 16.6117H221.476V0H238.481V2.83301H225.34V6.53522H233.006V9.36822H225.34V13.4889H238.642V16.6117ZM265.5 16.6117H259.959L253.261 10.334H249.59V16.6117H245.789V0H260.025C262.516 0 263.762 1.07311 263.762 3.21932V7.1147C263.762 8.72436 263.117 9.72236 261.829 10.1087C261.335 10.2589 260.003 10.334 257.835 10.334L265.5 16.6117ZM260.025 6.18108V4.18511C260.025 3.62712 259.864 3.26225 259.541 3.09056C259.304 2.94032 258.886 2.86521 258.285 2.86521H249.59V7.50101H258.285C258.886 7.50101 259.304 7.4259 259.541 7.27565C259.864 7.10397 260.025 6.7391 260.025 6.18108ZM289.648 12.6841C289.648 14.2294 289.347 15.2703 288.746 15.8068C288.145 16.3434 287.062 16.6117 285.493 16.6117H275.219C273.523 16.6117 272.406 16.3112 271.87 15.7103C271.333 15.1093 271.064 13.9504 271.064 12.2334L274.478 11.5252V13.4889H286.234V9.69014H275.864C274.295 9.69014 273.212 9.42189 272.611 8.88533C272.032 8.34878 271.741 7.30784 271.741 5.76258V3.92758C271.741 2.38228 272.032 1.34138 272.611 0.804829C273.212 0.268279 274.295 0 275.864 0H285.3C286.889 0 287.974 0.279007 288.553 0.837022C289.132 1.37358 289.423 2.4252 289.423 3.99196L286.009 4.7968V2.8974H275.123V6.47082H285.493C287.062 6.47082 288.145 6.7391 288.746 7.27565C289.347 7.81221 289.648 8.85314 289.648 10.3984V12.6841ZM314.821 16.6117H297.655V0H314.66V2.83301H301.521V6.53522H309.185V9.36822H301.521V13.4889H314.821V16.6117Z" fill="#1A1C1E"/><path d="M198.691 60.0546C198.309 56.4754 196.696 53.6885 193.855 51.6941C191.041 49.6997 187.38 48.7024 182.872 48.7024C179.702 48.7024 176.985 49.1805 174.717 50.1369C172.449 51.0931 170.714 52.3909 169.512 54.0303C168.309 55.6695 167.695 57.541 167.668 59.6447C167.668 61.3934 168.064 62.9095 168.855 64.1938C169.675 65.4778 170.782 66.5708 172.175 67.4724C173.568 68.3468 175.113 69.0843 176.806 69.6855C178.501 70.2866 180.208 70.792 181.93 71.2017L189.797 73.169C192.967 73.9066 196.014 74.9038 198.937 76.1605C201.889 77.4173 204.524 79.0022 206.846 80.9145C209.197 82.8271 211.054 85.1358 212.42 87.8406C213.785 90.5455 214.47 93.7148 214.47 97.3486C214.47 102.267 213.212 106.597 210.7 110.34C208.185 114.056 204.552 116.965 199.798 119.069C195.071 121.146 189.348 122.184 182.626 122.184C176.096 122.184 170.427 121.173 165.619 119.151C160.837 117.13 157.094 114.179 154.389 110.299C151.712 106.419 150.264 101.693 150.045 96.1191H165.004C165.223 99.0425 166.123 101.474 167.708 103.414C169.293 105.354 171.355 106.802 173.897 107.758C176.465 108.714 179.333 109.192 182.504 109.192C185.809 109.192 188.705 108.701 191.191 107.717C193.705 106.706 195.672 105.313 197.093 103.537C198.513 101.734 199.239 99.63 199.265 97.2257C199.239 95.0399 198.596 93.2366 197.339 91.816C196.083 90.3679 194.32 89.1657 192.052 88.2095C189.812 87.2259 187.189 86.3515 184.184 85.5867L174.635 83.1277C167.723 81.3517 162.257 78.6606 158.242 75.0541C154.253 71.4203 152.258 66.598 152.258 60.5873C152.258 55.6422 153.597 51.3117 156.274 47.5959C158.979 43.8801 162.654 40.9977 167.299 38.9486C171.943 36.8722 177.202 35.834 183.077 35.834C189.032 35.834 194.251 36.8722 198.733 38.9486C203.24 40.9977 206.778 43.8528 209.346 47.5141C211.916 51.1476 213.24 55.3281 213.322 60.0546H198.691ZM242.206 84.0293V120.913H227.368V36.9815H241.877V68.6609H242.614C244.089 65.1089 246.37 62.3085 249.458 60.2594C252.572 58.183 256.535 57.1448 261.343 57.1448C265.715 57.1448 269.525 58.06 272.776 59.8907C276.029 61.7212 278.541 64.3988 280.319 67.9231C282.121 71.4478 283.023 75.7508 283.023 80.8327V120.913H268.187V83.1277C268.187 78.8927 267.094 75.6005 264.909 73.2508C262.749 70.874 259.719 69.6855 255.811 69.6855C253.187 69.6855 250.838 70.2591 248.761 71.4066C246.713 72.527 245.1 74.1524 243.926 76.2838C242.779 78.4147 242.206 80.9965 242.206 84.0293ZM316.259 122.184C312.271 122.184 308.678 121.473 305.481 120.053C302.311 118.604 299.799 116.474 297.941 113.66C296.11 110.845 295.194 107.376 295.194 103.25C295.194 99.6983 295.849 96.7611 297.161 94.4389C298.473 92.1164 300.263 90.2586 302.532 88.8653C304.798 87.4717 307.352 86.4198 310.195 85.7095C313.063 84.9717 316.028 84.439 319.088 84.1113C322.776 83.7287 325.767 83.3873 328.062 83.0867C330.357 82.7588 332.024 82.2671 333.063 81.6113C334.128 80.9283 334.661 79.8765 334.661 78.4557V78.2096C334.661 75.1224 333.746 72.7318 331.914 71.0377C330.085 69.3437 327.447 68.4971 324.005 68.4971C320.372 68.4971 317.489 69.2892 315.359 70.8738C313.255 72.4585 311.833 74.33 311.097 76.4886L297.243 74.5213C298.338 70.6963 300.139 67.4999 302.654 64.9316C305.166 62.3358 308.24 60.3962 311.875 59.1119C315.508 57.8006 319.524 57.1448 323.923 57.1448C326.957 57.1448 329.975 57.5 332.981 58.2103C335.985 58.9208 338.731 60.0956 341.217 61.7348C343.703 63.3467 345.698 65.5461 347.201 68.333C348.73 71.1199 349.497 74.6034 349.497 78.7836V120.913H335.235V112.266H334.743C333.841 114.015 332.569 115.654 330.933 117.184C329.32 118.687 327.284 119.903 324.825 120.832C322.392 121.733 319.537 122.184 316.259 122.184ZM320.113 111.283C323.091 111.283 325.673 110.695 327.859 109.52C330.045 108.318 331.725 106.733 332.898 104.766C334.1 102.799 334.703 100.654 334.703 98.3322V90.9144C334.237 91.297 333.445 91.652 332.324 91.9799C331.231 92.3077 330.003 92.5946 328.635 92.8405C327.27 93.0863 325.918 93.3049 324.578 93.4962C323.24 93.6875 322.078 93.8514 321.096 93.9879C318.882 94.2886 316.902 94.7803 315.152 95.4633C313.404 96.1464 312.024 97.1027 311.015 98.3322C310.002 99.5343 309.496 101.092 309.496 103.004C309.496 105.736 310.495 107.799 312.49 109.192C314.483 110.586 317.023 111.283 320.113 111.283ZM364.413 120.913V57.9645H378.799V68.456H379.454C380.601 64.8221 382.569 62.0217 385.356 60.0546C388.169 58.06 391.381 57.0628 394.988 57.0628C395.806 57.0628 396.722 57.1038 397.733 57.1857C398.77 57.2404 399.63 57.336 400.313 57.4727V71.1199C399.686 70.9011 398.689 70.71 397.323 70.546C395.983 70.3548 394.685 70.2591 393.429 70.2591C390.726 70.2591 388.293 70.8466 386.135 72.0215C384.003 73.169 382.323 74.7672 381.094 76.8163C379.864 78.8654 379.249 81.2287 379.249 83.9063V120.913H364.413ZM435.448 122.143C429.136 122.143 423.683 120.832 419.094 118.209C414.531 115.558 411.022 111.815 408.561 106.979C406.102 102.116 404.874 96.3922 404.874 89.8077C404.874 83.3325 406.102 77.6496 408.561 72.7591C411.049 67.8413 414.517 64.016 418.973 61.2841C423.424 58.5245 428.656 57.1448 434.668 57.1448C438.548 57.1448 442.207 57.7731 445.651 59.0299C449.119 60.2594 452.181 62.172 454.831 64.7675C457.508 67.3631 459.612 70.669 461.143 74.6852C462.674 78.6743 463.439 83.4281 463.439 88.9473V93.4962H411.842V83.4966H449.217C449.189 80.6551 448.574 78.1278 447.373 75.9147C446.171 73.6743 444.488 71.912 442.332 70.628C440.2 69.3439 437.714 68.7017 434.873 68.7017C431.841 68.7017 429.177 69.4395 426.882 70.9148C424.587 72.3629 422.797 74.2755 421.513 76.6525C420.257 79.0022 419.614 81.584 419.586 84.3982V93.1273C419.586 96.7886 420.257 99.9306 421.595 102.553C422.932 105.149 424.806 107.143 427.211 108.537C429.613 109.903 432.426 110.586 435.649 110.586C437.811 110.586 439.762 110.285 441.512 109.684C443.26 109.056 444.777 108.141 446.061 106.939C447.345 105.736 448.315 104.247 448.97 102.471L462.824 104.029C461.948 107.69 460.283 110.886 457.823 113.619C455.39 116.323 452.276 118.427 448.478 119.93C444.68 121.406 440.336 122.143 435.448 122.143ZM475.989 120.913V57.9645H490.372V68.456H491.029C492.178 64.8221 494.144 62.0217 496.93 60.0546C499.745 58.06 502.956 57.0628 506.561 57.0628C507.381 57.0628 508.297 57.1038 509.306 57.1857C510.345 57.2404 511.205 57.336 511.888 57.4727V71.1199C511.261 70.9011 510.264 70.71 508.898 70.546C507.558 70.3548 506.26 70.2591 505.004 70.2591C502.299 70.2591 499.868 70.8466 497.71 72.0215C495.578 73.169 493.898 74.7672 492.667 76.8163C491.439 78.8654 490.824 81.2287 490.824 83.9063V120.913H475.989Z" fill="#1A1C1E"/><path d="M91.9766 20H26.2109C11.735 20 0 31.735 0 46.2109V111.977C0 126.452 11.735 138.188 26.2109 138.188H91.9766C106.452 138.188 118.188 126.452 118.188 111.977V46.2109C118.188 31.735 106.452 20 91.9766 20Z" fill="#D3E5F5"/><path fill-rule="evenodd" clip-rule="evenodd" d="M58.9462 30.7227H58.9384L58.9303 30.7227C46.1007 30.7885 33.8207 35.9397 24.7836 45.0467C15.7465 54.1536 10.6899 66.4727 10.7228 79.3025C10.7557 92.1323 15.8754 104.425 24.959 113.486C34.0428 122.546 46.349 127.634 59.1788 127.634C72.0086 127.634 84.3149 122.546 93.3986 113.486C102.482 104.425 107.602 92.1323 107.635 79.3025C107.668 66.4727 102.611 54.1536 93.574 45.0467C84.5369 35.9397 72.2571 30.7885 59.4273 30.7227L59.4195 30.7227H59.4114H58.9462ZM61.3233 36.9718V60.3267C66.5889 60.133 71.7784 59.228 76.7563 57.6549C76.4971 57.0399 76.2264 56.4289 75.9448 55.8223C72.5933 48.6052 67.7436 42.1871 61.7203 36.9938C61.5881 36.9858 61.4558 36.9785 61.3233 36.9718ZM49.3011 38.0878C41.7345 39.907 34.7514 43.7971 29.1811 49.4103C28.6402 49.9555 28.1157 50.5138 27.608 51.0845C30.7645 53.1161 34.0971 54.83 37.5562 56.2106C37.8634 55.4734 38.1858 54.7416 38.5227 54.0158C41.2465 48.1505 44.8893 42.7756 49.3011 38.0878ZM24.9102 54.4467C20.1604 61.028 17.3868 68.8681 16.9723 77.0343H32.9607C33.1866 71.3065 34.2281 65.6473 36.0474 60.2264C32.167 58.684 28.4346 56.7511 24.9102 54.4467ZM16.9724 81.3233C17.3873 89.4923 20.1626 97.332 24.9106 103.91C28.3936 101.633 32.0798 99.7189 35.9111 98.1856C34.1278 92.743 33.1263 87.0654 32.944 81.3233H16.9724ZM27.6087 107.273C28.1641 107.897 28.7393 108.506 29.3343 109.1C34.7424 114.494 41.46 118.274 48.7388 120.129C44.5793 115.586 41.13 110.421 38.5227 104.807C38.125 103.95 37.7478 103.086 37.3913 102.213C33.9915 103.582 30.7149 105.273 27.6087 107.273ZM57.0343 121.385C56.7088 121.368 56.384 121.348 56.0597 121.324C50.3035 116.222 45.6563 109.985 42.4129 103.001C42.0685 102.259 41.7409 101.511 41.4302 100.757C46.4601 99.1506 51.7085 98.2268 57.0343 98.0309V121.385ZM62.2981 121.324C61.9738 121.348 61.6488 121.368 61.3233 121.385V98.0309C66.6492 98.2268 71.8975 99.1506 76.9277 100.757C76.6167 101.511 76.2891 102.259 75.9448 103.001C72.7013 109.985 68.0541 116.222 62.2981 121.324ZM69.6189 120.129C76.8976 118.274 83.6153 114.494 89.0235 109.1C89.6183 108.506 90.1937 107.897 90.7492 107.273C87.6429 105.273 84.3663 103.582 80.9663 102.213C80.6098 103.086 80.2329 103.95 79.8349 104.807C77.2279 110.421 73.7785 115.586 69.6189 120.129ZM93.447 103.91C98.195 97.332 100.97 89.4923 101.385 81.3233H85.4136C85.2313 87.0654 84.2298 92.743 82.4465 98.1856C86.2778 99.7189 89.964 101.633 93.447 103.91ZM101.385 77.0343C100.971 68.8681 98.1974 61.028 93.4477 54.4467C89.9233 56.7511 86.1906 58.684 82.3104 60.2264C84.1297 65.6473 85.171 71.3065 85.3969 77.0343H101.385ZM90.7499 51.0845C90.2419 50.5138 89.7174 49.9555 89.1765 49.4103C83.6062 43.7971 76.6231 39.907 69.0568 38.0878C73.4683 42.7756 77.1111 48.1505 79.8349 54.0158C80.1721 54.7416 80.4943 55.4734 80.8016 56.2106C84.2608 54.83 87.5931 53.1161 90.7499 51.0845ZM56.6375 36.9938C56.7695 36.9858 56.902 36.9785 57.0343 36.9718V60.3267C51.769 60.133 46.5792 59.228 41.6013 57.6549C41.8608 57.0399 42.1312 56.4289 42.4129 55.8223C45.7643 48.6052 50.6143 42.1871 56.6375 36.9938ZM37.2534 77.0343C37.4757 71.8007 38.4309 66.6302 40.0858 61.6737C45.5475 63.422 51.249 64.4204 57.0343 64.6184V77.0343H37.2534ZM61.3233 77.0343V64.6184C67.1088 64.4204 72.8104 63.422 78.2718 61.6737C79.9267 66.6302 80.8819 71.8007 81.1043 77.0343H61.3233ZM61.3233 81.3233H81.1221C80.9429 86.5679 80.0279 91.7532 78.4105 96.7287C72.9069 94.9526 67.1577 93.9392 61.3233 93.7392V81.3233ZM57.0343 81.3233V93.7392C51.2 93.9392 45.4509 94.9526 39.9474 96.7287C38.3297 91.7532 37.4147 86.5679 37.2355 81.3233H57.0343Z" fill="#0B1D29" fill-opacity="0.16"/><path fill-rule="evenodd" clip-rule="evenodd" d="M64.2666 70.9024C64.2666 72.3711 65.4563 73.5621 66.9249 73.564H68.599C70.8327 73.564 71.9495 73.564 72.7997 74.0058C73.516 74.3777 74.1002 74.962 74.4722 75.6783C74.914 76.5284 74.914 77.6453 74.914 79.8789V96.7068C74.914 98.9405 74.914 100.057 74.4722 100.907C74.1002 101.624 73.516 102.208 72.7997 102.58C71.9495 103.022 70.8327 103.021 68.599 103.021H49.2868C47.0532 103.021 45.9363 103.022 45.0861 102.58C44.3699 102.208 43.7858 101.624 43.4137 100.907C42.9721 100.057 42.9721 98.9405 42.9721 96.7068V79.8789C42.9721 77.6453 42.9721 76.5284 43.4137 75.6783C43.7858 74.962 44.3699 74.3777 45.0861 74.0058C45.9363 73.564 47.0532 73.564 49.2868 73.564H50.9629C52.4305 73.5611 53.6192 72.3704 53.6192 70.9024C53.6192 69.4336 52.43 68.2427 50.9617 68.2405H49.1574C45.0864 68.2405 43.051 68.2405 41.5017 69.0452C40.1959 69.7236 39.1315 70.788 38.4534 72.0935C37.6484 73.6431 37.6484 75.6785 37.6484 79.7495V96.8362C37.6484 100.907 37.6484 102.943 38.4534 104.492C39.1315 105.798 40.1959 106.862 41.5017 107.54C43.051 108.345 45.0864 108.345 49.1574 108.345H68.9059C72.977 108.345 75.0124 108.345 76.5619 107.54C77.8674 106.862 78.9319 105.798 79.6102 104.492C80.4149 102.943 80.4149 100.907 80.4149 96.8362V79.7495C80.4149 75.6785 80.4149 73.6431 79.6102 72.0935C78.9319 70.788 77.8674 69.7236 76.5619 69.0452C75.0124 68.2405 72.977 68.2405 68.9059 68.2405H66.9225C65.4551 68.2436 64.2666 69.4341 64.2666 70.9024Z" fill="#0B1D29"/><path d="M61.6933 53.5116C61.6933 52.0415 60.5015 50.8498 59.0314 50.8498C57.5614 50.8498 56.3696 52.0415 56.3696 53.5116V87.5828C56.3696 89.0529 57.5614 90.2446 59.0314 90.2446C60.5015 90.2446 61.6933 89.0529 61.6933 87.5828V53.5116Z" fill="#0B1D29"/><path d="M57.1478 51.6397C57.8152 50.9828 58.1488 50.6542 58.5336 50.5338C58.8579 50.4323 59.2053 50.4323 59.5296 50.5338C59.9145 50.6542 60.2481 50.9828 60.9155 51.6397L65.0404 55.7002C66.5192 57.1559 67.2585 57.8839 67.3041 58.511C67.3417 59.0314 67.1334 59.5397 66.7415 59.8842C66.2692 60.2993 65.2317 60.2993 63.1565 60.2993H54.9068C52.8316 60.2993 51.7941 60.2993 51.3218 59.8842C50.9298 59.5397 50.7216 59.0314 50.7592 58.511C50.8047 57.8839 51.5441 57.1559 53.0229 55.7002L57.1478 51.6397Z" fill="#0B1D29"/></svg>