<svg viewBox="0 0 13 13" fill="none" xmlns="http://www.w3.org/2000/svg">
    <circle cx="6.5" cy="6.5" r="6.5" fill="#ED6A5E" />
    <path
        d="M6.50001 7.06875L3.65626 9.9125C3.57501 9.99375 3.48022 10.0344 3.37189 10.0344C3.26355 10.0344 3.16876 9.99375 3.08751 9.9125C3.00626 9.83125 2.96564 9.73646 2.96564 9.62812C2.96564 9.51979 3.00626 9.425 3.08751 9.34375L5.93126 6.5L3.08751 3.65625C3.00626 3.575 2.96564 3.48021 2.96564 3.37187C2.96564 3.26354 3.00626 3.16875 3.08751 3.0875C3.16876 3.00625 3.26355 2.96562 3.37189 2.96562C3.48022 2.96562 3.57501 3.00625 3.65626 3.0875L6.50001 5.93125L9.34376 3.0875C9.42501 3.00625 9.5198 2.96562 9.62814 2.96562C9.73647 2.96562 9.83126 3.00625 9.91251 3.0875C9.99376 3.16875 10.0344 3.26354 10.0344 3.37187C10.0344 3.48021 9.99376 3.575 9.91251 3.65625L7.06876 6.5L9.91251 9.34375C9.99376 9.425 10.0344 9.51979 10.0344 9.62812C10.0344 9.73646 9.99376 9.83125 9.91251 9.9125C9.83126 9.99375 9.73647 10.0344 9.62814 10.0344C9.5198 10.0344 9.42501 9.99375 9.34376 9.9125L6.50001 7.06875Z"
        fill="#8E1B12" />
</svg>