<svg viewBox="0 0 48 48" fill="none" xmlns="http://www.w3.org/2000/svg">
<path d="M24 26.1L13.5 36.5999C13.2 36.8999 12.85 37.0499 12.45 37.0499C12.05 37.0499 11.7 36.8999 11.4 36.5999C11.1 36.2999 10.95 35.9499 10.95 35.5499C10.95 35.1499 11.1 34.8 11.4 34.5L21.9 24L11.4 13.5C11.1 13.2 10.95 12.85 10.95 12.45C10.95 12.05 11.1 11.7 11.4 11.4C11.7 11.1 12.05 10.95 12.45 10.95C12.85 10.95 13.2 11.1 13.5 11.4L24 21.9L34.5 11.4C34.8 11.1 35.15 10.95 35.55 10.95C35.95 10.95 36.3 11.1 36.6 11.4C36.9 11.7 37.05 12.05 37.05 12.45C37.05 12.85 36.9 13.2 36.6 13.5L26.1 24L36.6 34.5C36.9 34.8 37.05 35.1499 37.05 35.5499C37.05 35.9499 36.9 36.2999 36.6 36.5999C36.3 36.8999 35.95 37.0499 35.55 37.0499C35.15 37.0499 34.8 36.8999 34.5 36.5999L24 26.1Z" fill="black"/>
</svg>
