<svg viewBox="0 0 512 512" fill="none" xmlns="http://www.w3.org/2000/svg">
    <rect width="512" height="512" rx="116" fill="white" />
    <path
        d="M256.354 41C137.414 41 41 137.177 41 255.807C41 346.823 97.7308 424.56 177.851 455.83C175.965 438.824 174.276 412.768 178.588 394.203C182.522 377.412 203.845 287.454 203.845 287.454C203.845 287.454 197.396 274.551 197.396 255.538C197.396 225.737 214.767 203.373 236.342 203.373C254.738 203.373 263.612 217.154 263.612 233.622C263.612 252.062 251.881 279.623 245.791 305.159C240.672 326.537 256.57 343.956 277.678 343.956C315.906 343.956 345.367 303.725 345.367 245.628C345.367 194.359 308.307 158.376 255.402 158.376C194.144 158.376 158.234 204.287 158.234 251.542C158.234 270.053 165.312 289.945 174.204 300.661C175.983 302.811 176.216 304.693 175.731 306.843C174.114 313.563 170.468 328.329 169.731 331.268C168.779 335.3 166.641 336.124 162.528 334.225C135.671 321.86 118.821 282.651 118.821 250.969C118.821 183.303 168.186 121.013 261.097 121.013C335.792 121.013 393.888 174.181 393.888 245.073C393.888 319.172 347.055 378.792 281.917 378.792C260.109 378.792 239.63 367.52 232.372 354.08L218.917 405.116C214.085 423.843 200.881 447.264 192.007 461.493C212.18 467.675 233.432 471.08 255.779 471.08C374.469 471.08 471.08 374.939 471.08 256.273C471.08 137.589 374.469 41.4659 255.779 41.4659L256.354 41Z"
        fill="#E60123" />
</svg>