<svg viewBox="0 0 512 512" fill="none" xmlns="http://www.w3.org/2000/svg"> <rect width="512" height="512" rx="116" fill="white" /> <path d="M256.04 41C199.008 41 144.312 63.6559 103.984 103.984C63.6559 144.312 41 199.008 41 256.04C41 313.072 63.6559 367.768 103.984 408.096C144.312 448.424 199.008 471.08 256.04 471.08C313.072 471.08 367.768 448.424 408.096 408.096C448.424 367.768 471.08 313.072 471.08 256.04C471.08 199.008 448.424 144.312 408.096 103.984C367.768 63.6559 313.072 41 256.04 41V41ZM345.819 126.012C358.148 126.012 368.219 136.066 368.219 148.395C368.157 154.207 365.838 159.767 361.752 163.901C357.666 168.035 352.133 170.418 346.323 170.549C340.512 170.679 334.878 168.545 330.611 164.599C326.344 160.652 323.778 155.201 323.455 149.398L276.917 139.596L262.581 206.742C295.267 207.996 324.942 218.068 346.339 233.407C351.858 227.87 359.42 224.608 367.968 224.608C385.315 224.608 399.4 238.693 399.4 256.04C399.4 268.871 391.605 279.927 381.301 284.963C381.812 288.042 382.064 291.16 382.053 294.281C382.053 342.558 325.964 381.552 256.542 381.552C187.12 381.552 131.03 342.558 131.03 294.281C131.03 291.002 131.299 287.723 131.801 284.712C126.253 282.25 121.54 278.23 118.235 273.14C114.929 268.05 113.174 262.109 113.182 256.04C113.182 238.693 127.267 224.608 144.613 224.608C152.91 224.608 160.706 228.121 166.243 233.389C187.872 217.566 217.817 207.764 251.255 206.742L267.115 131.801C267.493 130.358 268.385 129.103 269.623 128.27C270.911 127.521 272.422 127.254 273.888 127.518L325.964 138.574C327.724 134.8 330.53 131.609 334.05 129.382C337.569 127.156 341.654 125.986 345.819 126.012V126.012ZM206.76 256.04C194.413 256.04 184.36 266.111 184.36 278.44C184.36 290.751 194.413 300.804 206.76 300.804C219.071 300.804 229.124 290.751 229.124 278.422C229.124 266.093 219.071 256.04 206.742 256.04H206.76ZM305.32 256.04C293.009 256.04 282.956 266.093 282.956 278.44C282.956 290.751 293.009 300.804 305.338 300.804C317.667 300.804 327.72 290.751 327.72 278.422C327.72 266.111 317.649 256.04 305.32 256.04V256.04ZM207.369 327.541C205.821 327.533 204.333 328.139 203.23 329.225C202.141 330.331 201.531 331.822 201.531 333.374C201.531 334.926 202.141 336.416 203.23 337.522C218.318 352.611 247.743 353.883 256.291 353.883C264.839 353.883 294.012 352.88 309.352 337.522C310.4 336.421 311.026 334.985 311.121 333.468C311.216 331.951 310.774 330.449 309.872 329.225C308.765 328.131 307.271 327.517 305.714 327.517C304.158 327.517 302.664 328.131 301.557 329.225C291.755 338.777 271.38 342.307 256.542 342.307C241.704 342.307 221.078 338.795 211.527 329.225C210.98 328.681 210.332 328.251 209.618 327.958C208.905 327.666 208.14 327.518 207.369 327.523V327.541Z" fill="url(#paint0_linear_51_23)" /> <defs> <linearGradient id="paint0_linear_51_23" x1="256.04" y1="41" x2="256.04" y2="471.08" gradientUnits="userSpaceOnUse"> <stop stop-color="#EF8537" /> <stop offset="1" stop-color="#DA3231" /> </linearGradient> </defs> </svg>