<svg viewBox="0 0 512 512" fill="none" xmlns="http://www.w3.org/2000/svg">
    <rect width="512" height="512" rx="116" fill="white" />
    <path
        d="M256 456C366.457 456 456 366.457 456 256C456 145.543 366.457 56 256 56C145.543 56 56 145.543 56 256C56 366.457 145.543 456 256 456Z"
        fill="url(#paint0_linear_59_11)" />
    <path
        d="M191.382 270.62L215.11 336.297C215.11 336.297 218.077 342.442 221.254 342.442C224.43 342.442 271.679 293.288 271.679 293.288L324.22 191.805L192.229 253.667L191.382 270.62Z"
        fill="#C8DAEA" />
    <path
        d="M222.843 287.463L218.288 335.873C218.288 335.873 216.382 350.707 231.212 335.873C246.042 321.04 260.237 309.602 260.237 309.602"
        fill="#A9C6D8" />
    <path
        d="M191.81 272.963L143 257.06C143 257.06 137.167 254.693 139.045 249.327C139.432 248.22 140.212 247.278 142.545 245.66C153.36 238.122 342.722 170.06 342.722 170.06C342.722 170.06 348.068 168.258 351.222 169.457C352.002 169.698 352.704 170.143 353.256 170.744C353.808 171.346 354.19 172.084 354.363 172.882C354.704 174.291 354.847 175.741 354.787 177.19C354.772 178.443 354.62 179.605 354.505 181.427C353.352 200.035 318.838 338.915 318.838 338.915C318.838 338.915 316.773 347.042 309.375 347.32C307.557 347.379 305.746 347.071 304.049 346.414C302.352 345.758 300.805 344.767 299.5 343.5C284.982 331.012 234.802 297.288 223.713 289.872C223.463 289.701 223.253 289.479 223.096 289.22C222.939 288.962 222.839 288.672 222.803 288.372C222.648 287.59 223.498 286.622 223.498 286.622C223.498 286.622 310.875 208.955 313.2 200.802C313.38 200.17 312.7 199.858 311.787 200.135C305.983 202.27 205.38 265.802 194.277 272.813C193.477 273.055 192.633 273.107 191.81 272.963V272.963Z"
        fill="white" />
    <defs>
        <linearGradient id="paint0_linear_59_11" x1="256" y1="456" x2="256" y2="56" gradientUnits="userSpaceOnUse">
            <stop stop-color="#1D93D2" />
            <stop offset="1" stop-color="#38B0E3" />
        </linearGradient>
    </defs>
</svg>